<svg width="149" height="32" viewBox="0 0 149 32" fill="none" xmlns="http://www.w3.org/2000/svg">
<path d="M29.7767 6.63112V7.33386C29.0372 7.35729 28.4826 7.45098 28.1128 7.61496C27.743 7.75551 27.4888 8.0366 27.3502 8.45824C27.2346 8.85646 27.1769 9.48893 27.1769 10.3556V27.7836C27.1769 28.6269 27.2346 29.2593 27.3502 29.681C27.4888 30.1026 27.743 30.3837 28.1128 30.5242C28.4826 30.6648 29.0372 30.7585 29.7767 30.8053V31.5081C29.1296 31.4612 28.3092 31.4378 27.3155 31.4378C26.3449 31.4144 25.3512 31.4027 24.3344 31.4027C23.2251 31.4027 22.1852 31.4144 21.2146 31.4378C20.244 31.4378 19.4583 31.4612 18.8574 31.5081V30.8053C19.6431 30.7585 20.2324 30.6648 20.6253 30.5242C21.0413 30.3837 21.3186 30.1026 21.4572 29.681C21.5959 29.2593 21.6652 28.6269 21.6652 27.7836V8.77448H21.9079L13.3111 31.5432H12.7565L3.39711 8.91503V25.7456C3.39711 27.034 3.46644 28.0295 3.60509 28.7323C3.74375 29.4116 4.04418 29.9035 4.50637 30.208C4.99167 30.4891 5.74273 30.6882 6.75955 30.8053V31.5081C6.32047 31.4612 5.74273 31.4378 5.02633 31.4378C4.30994 31.4144 3.63976 31.4027 3.0158 31.4027C2.48428 31.4027 1.9412 31.4144 1.38657 31.4378C0.831945 31.4378 0.369753 31.4612 0 31.5081V30.8053C0.739506 30.6882 1.29414 30.4891 1.66389 30.208C2.03364 29.9269 2.27629 29.4701 2.39184 28.8377C2.5305 28.1818 2.59983 27.2916 2.59983 26.1673V10.3556C2.59983 9.48893 2.5305 8.85646 2.39184 8.45824C2.27629 8.0366 2.02209 7.75551 1.62923 7.61496C1.25947 7.45098 0.716397 7.35729 0 7.33386V6.63112C0.369753 6.65455 0.831945 6.67797 1.38657 6.7014C1.9412 6.72482 2.48428 6.73653 3.0158 6.73653C4.00951 6.73653 4.98011 6.72482 5.92761 6.7014C6.89821 6.67797 7.75326 6.65455 8.49277 6.63112L15.7723 24.4456L14.9057 25.2537L21.8732 6.73653C22.2661 6.73653 22.6705 6.73653 23.0865 6.73653C23.5024 6.73653 23.9184 6.73653 24.3344 6.73653C25.3512 6.73653 26.3449 6.72482 27.3155 6.7014C28.3092 6.67797 29.1296 6.65455 29.7767 6.63112Z" fill="black"/>
<path d="M36.5779 12.8504C38.2649 12.8504 39.744 13.1666 41.015 13.7991C42.286 14.4315 43.2797 15.4505 43.9961 16.856C44.7125 18.2615 45.0707 20.1237 45.0707 22.4427C45.0707 24.7618 44.7125 26.624 43.9961 28.0295C43.2797 29.4116 42.286 30.4188 41.015 31.0513C39.744 31.6838 38.2649 32 36.5779 32C34.9372 32 33.4697 31.6838 32.1756 31.0513C30.9045 30.4188 29.8993 29.4116 29.1598 28.0295C28.4434 26.624 28.0852 24.7618 28.0852 22.4427C28.0852 20.1237 28.4434 18.2615 29.1598 16.856C29.8993 15.4505 30.9045 14.4315 32.1756 13.7991C33.4697 13.1666 34.9372 12.8504 36.5779 12.8504ZM36.5779 13.5531C35.6536 13.5531 34.8794 14.2558 34.2554 15.6613C33.6315 17.0434 33.3195 19.3038 33.3195 22.4427C33.3195 25.5816 33.6315 27.8421 34.2554 29.2242C34.8794 30.6062 35.6536 31.2973 36.5779 31.2973C37.5254 31.2973 38.2996 30.6062 38.9005 29.2242C39.5244 27.8421 39.8364 25.5816 39.8364 22.4427C39.8364 19.3038 39.5244 17.0434 38.9005 15.6613C38.2996 14.2558 37.5254 13.5531 36.5779 13.5531Z" fill="black"/>
<path d="M60.8232 3.99585V27.643C60.8232 28.6971 60.985 29.4819 61.3085 29.9972C61.6321 30.4891 62.2098 30.7351 63.0417 30.7351V31.4729C62.3253 31.4027 61.609 31.3675 60.8926 31.3675C59.922 31.3675 59.0091 31.4027 58.1541 31.4729C57.3221 31.5432 56.548 31.6721 55.8316 31.8595V8.21228C55.8316 7.15818 55.6698 6.38516 55.3463 5.89325C55.0458 5.3779 54.4681 5.12023 53.613 5.12023V4.38236C54.3525 4.45263 55.0689 4.48777 55.7622 4.48777C56.7097 4.48777 57.611 4.45263 58.466 4.38236C59.3211 4.28866 60.1068 4.15982 60.8232 3.99585ZM51.9838 12.8504C53.0006 12.8504 53.8904 13.026 54.653 13.3774C55.4387 13.7054 56.0511 14.2676 56.4902 15.064L56.0742 15.4505C55.7738 14.8883 55.3694 14.4901 54.861 14.2558C54.3757 13.9982 53.8557 13.8693 53.3011 13.8693C52.1225 13.8693 51.1865 14.5721 50.4932 15.9776C49.8 17.3596 49.4649 19.503 49.488 22.4076C49.488 24.3987 49.6151 25.9916 49.8693 27.1862C50.1466 28.3575 50.5279 29.2008 51.0132 29.7161C51.5216 30.2314 52.0994 30.4891 52.7464 30.4891C53.5322 30.4891 54.237 30.1729 54.861 29.5404C55.4849 28.9079 55.82 28.0529 55.8662 26.9754L56.0395 28.2052C55.6929 29.4467 55.1267 30.3954 54.341 31.0513C53.5784 31.6838 52.5731 32 51.3252 32C49.9617 32 48.7369 31.6603 47.6508 30.981C46.5877 30.3017 45.7558 29.2593 45.1549 27.8538C44.5541 26.4249 44.2537 24.5861 44.2537 22.3373C44.2537 20.2057 44.5887 18.4489 45.2589 17.0668C45.9291 15.6613 46.8419 14.6072 47.9974 13.9045C49.176 13.2017 50.5048 12.8504 51.9838 12.8504Z" fill="black"/>
<path d="M69.9627 12.8504C71.9963 12.8504 73.5909 13.4594 74.7464 14.6775C75.9019 15.8956 76.4796 17.8867 76.4796 20.6508H65.075L65.0057 19.9832H72.1119C72.135 18.8354 72.0657 17.7812 71.9039 16.8208C71.7421 15.837 71.4879 15.0523 71.1413 14.4667C70.7946 13.881 70.3325 13.5882 69.7547 13.5882C68.9459 13.5882 68.2526 14.1036 67.6749 15.1343C67.1202 16.1649 66.7851 17.8749 66.6696 20.2643L66.7736 20.4751C66.7505 20.7562 66.7274 21.049 66.7043 21.3535C66.7043 21.658 66.7043 21.9743 66.7043 22.3022C66.7043 23.9185 66.9238 25.2303 67.3629 26.2375C67.8251 27.2448 68.4028 27.9827 69.0961 28.4512C69.7894 28.8962 70.4942 29.1188 71.2106 29.1188C71.6959 29.1188 72.1928 29.0485 72.7012 28.9079C73.2327 28.744 73.7642 28.4629 74.2957 28.0647C74.8273 27.643 75.3241 27.0574 75.7863 26.3078L76.4103 26.5186C76.133 27.4088 75.6939 28.2755 75.093 29.1188C74.4922 29.9621 73.7296 30.6531 72.8052 31.1919C71.8808 31.7306 70.7715 32 69.4774 32C67.9059 32 66.5194 31.6603 65.3177 30.981C64.116 30.3017 63.1685 29.271 62.4752 27.889C61.805 26.5069 61.4699 24.7501 61.4699 22.6184C61.4699 20.4399 61.8281 18.6245 62.5445 17.1722C63.284 15.7199 64.2893 14.6423 65.5603 13.9396C66.8545 13.2134 68.3219 12.8504 69.9627 12.8504Z" fill="black"/>
<path d="M82.092 3.99585V28.2403C82.092 29.2242 82.2537 29.8918 82.5773 30.2432C82.9239 30.5945 83.5017 30.7702 84.3105 30.7702V31.5081C83.8714 31.4847 83.2128 31.4612 82.3346 31.4378C81.4565 31.391 80.5667 31.3675 79.6655 31.3675C78.7642 31.3675 77.8514 31.391 76.927 31.4378C76.0257 31.4612 75.344 31.4847 74.8818 31.5081V30.7702C75.6906 30.7702 76.2568 30.5945 76.5803 30.2432C76.927 29.8918 77.1003 29.2242 77.1003 28.2403V8.21228C77.1003 7.15818 76.9385 6.38516 76.615 5.89325C76.3146 5.3779 75.7368 5.12023 74.8818 5.12023V4.38236C75.6213 4.45263 76.3377 4.48777 77.031 4.48777C77.9785 4.48777 78.8797 4.45263 79.7348 4.38236C80.5899 4.28866 81.3756 4.15982 82.092 3.99585Z" fill="black"/>
<path d="M91.4703 6.1392C92.7876 6.1392 93.9546 6.35003 94.9714 6.77167C96.0113 7.16989 96.8202 7.73208 97.3979 8.45824C97.9757 9.18441 98.2645 10.0511 98.2645 11.0584C98.2645 12.3233 97.8023 13.4243 96.878 14.3613C95.9767 15.2748 94.7172 16.1415 93.0995 16.9614L92.8222 16.4695C93.192 16.001 93.4809 15.4739 93.6888 14.8883C93.8968 14.3027 94.0355 13.6936 94.1048 13.0612C94.1972 12.4287 94.2435 11.8548 94.2435 11.3395C94.2435 9.91057 93.9661 8.7979 93.4115 8.00146C92.88 7.1816 92.1405 6.77167 91.193 6.77167C90.4073 6.77167 89.7949 7.04105 89.3558 7.57982C88.9167 8.11859 88.6972 8.82133 88.6972 9.68804C88.6972 10.6953 88.9514 11.6323 89.4598 12.499C89.9913 13.3657 90.6615 14.1856 91.4703 14.9586C92.3023 15.7316 93.1804 16.5046 94.1048 17.2776C95.0292 18.0506 95.8958 18.8471 96.7046 19.6669C97.5366 20.4868 98.2068 21.3652 98.7152 22.3022C99.2467 23.2158 99.5124 24.2347 99.5124 25.3591C99.5124 26.6709 99.1427 27.8187 98.4032 28.8025C97.6637 29.7864 96.6584 30.5711 95.3874 31.1567C94.1164 31.7189 92.6605 32 91.0197 32C89.5869 32 88.2581 31.7775 87.0333 31.3324C85.8085 30.8873 84.8263 30.2197 84.0868 29.3296C83.3473 28.416 82.9775 27.3034 82.9775 25.9916C82.9775 24.8672 83.2433 23.8717 83.7748 23.0049C84.3063 22.1148 85.0227 21.3418 85.924 20.6859C86.8484 20.03 87.8768 19.4678 89.0091 18.9993L89.2865 19.4912C88.5238 20.2643 87.9923 21.1661 87.6919 22.1968C87.4146 23.2275 87.2759 24.2816 87.2759 25.3591C87.2759 26.4367 87.3915 27.4322 87.6226 28.3458C87.8768 29.2593 88.2927 29.9972 88.8705 30.5594C89.4482 31.0982 90.2224 31.3675 91.193 31.3675C92.3023 31.3675 93.1573 31.0162 93.7582 30.3134C94.3821 29.6107 94.6941 28.6971 94.6941 27.5727C94.6941 26.4952 94.4399 25.5231 93.9315 24.6564C93.4231 23.7662 92.7645 22.9347 91.9556 22.1617C91.1699 21.3652 90.3148 20.5922 89.3904 19.8426C88.4892 19.093 87.6341 18.3317 86.8253 17.5587C86.0396 16.7623 85.3925 15.9073 84.8841 14.9937C84.3757 14.0567 84.1215 13.0143 84.1215 11.8665C84.1215 10.5782 84.4566 9.51235 85.1267 8.66907C85.82 7.82578 86.7213 7.19331 87.8306 6.77167C88.9629 6.35003 90.1762 6.1392 91.4703 6.1392Z" fill="black"/>
<path d="M107.435 6.1392C108.752 6.1392 109.919 6.35003 110.936 6.77167C111.976 7.16989 112.785 7.73208 113.362 8.45824C113.94 9.18441 114.229 10.0511 114.229 11.0584C114.229 12.3233 113.767 13.4243 112.843 14.3613C111.941 15.2748 110.682 16.1415 109.064 16.9614L108.787 16.4695C109.157 16.001 109.445 15.4739 109.653 14.8883C109.861 14.3027 110 13.6936 110.069 13.0612C110.162 12.4287 110.208 11.8548 110.208 11.3395C110.208 9.91057 109.931 8.7979 109.376 8.00146C108.845 7.1816 108.105 6.77167 107.158 6.77167C106.372 6.77167 105.759 7.04105 105.32 7.57982C104.881 8.11859 104.662 8.82133 104.662 9.68804C104.662 10.6953 104.916 11.6323 105.424 12.499C105.956 13.3657 106.626 14.1856 107.435 14.9586C108.267 15.7316 109.145 16.5046 110.069 17.2776C110.994 18.0506 111.86 18.8471 112.669 19.6669C113.501 20.4868 114.171 21.3652 114.68 22.3022C115.211 23.2158 115.477 24.2347 115.477 25.3591C115.477 26.6709 115.107 27.8187 114.368 28.8025C113.628 29.7864 112.623 30.5711 111.352 31.1567C110.081 31.7189 108.625 32 106.984 32C105.551 32 104.223 31.7775 102.998 31.3324C101.773 30.8873 100.791 30.2197 100.051 29.3296C99.3119 28.416 98.9421 27.3034 98.9421 25.9916C98.9421 24.8672 99.2079 23.8717 99.7394 23.0049C100.271 22.1148 100.987 21.3418 101.889 20.6859C102.813 20.03 103.841 19.4678 104.974 18.9993L105.251 19.4912C104.488 20.2643 103.957 21.1661 103.656 22.1968C103.379 23.2275 103.24 24.2816 103.24 25.3591C103.24 26.4367 103.356 27.4322 103.587 28.3458C103.841 29.2593 104.257 29.9972 104.835 30.5594C105.413 31.0982 106.187 31.3675 107.158 31.3675C108.267 31.3675 109.122 31.0162 109.723 30.3134C110.347 29.6107 110.659 28.6971 110.659 27.5727C110.659 26.4952 110.404 25.5231 109.896 24.6564C109.388 23.7662 108.729 22.9347 107.92 22.1617C107.134 21.3652 106.279 20.5922 105.355 19.8426C104.454 19.093 103.599 18.3317 102.79 17.5587C102.004 16.7623 101.357 15.9073 100.849 14.9937C100.34 14.0567 100.086 13.0143 100.086 11.8665C100.086 10.5782 100.421 9.51235 101.091 8.66907C101.785 7.82578 102.686 7.19331 103.795 6.77167C104.927 6.35003 106.141 6.1392 107.435 6.1392Z" fill="black"/>
<path d="M133.14 6.63112C133.048 7.66181 132.978 8.65735 132.932 9.61776C132.909 10.5782 132.897 11.316 132.897 11.8314C132.897 12.2999 132.909 12.745 132.932 13.1666C132.955 13.5882 132.978 13.9396 133.001 14.2207H132.204C131.973 12.5107 131.615 11.1638 131.13 10.18C130.644 9.17269 130.009 8.46996 129.223 8.07174C128.46 7.65009 127.559 7.43927 126.519 7.43927H125.098C124.428 7.43927 123.919 7.49783 123.573 7.61496C123.226 7.73208 122.995 7.96633 122.879 8.3177C122.764 8.66907 122.706 9.20783 122.706 9.934V28.2052C122.706 28.9314 122.764 29.4701 122.879 29.8215C122.995 30.1729 123.226 30.4071 123.573 30.5242C123.919 30.6414 124.428 30.6999 125.098 30.6999H126.797C127.836 30.6999 128.749 30.4774 129.535 30.0323C130.344 29.5638 131.026 28.7791 131.58 27.6782C132.158 26.5772 132.597 25.0897 132.897 23.2158H133.695C133.625 23.9654 133.591 24.9492 133.591 26.1673C133.591 26.706 133.602 27.4673 133.625 28.4512C133.649 29.435 133.718 30.454 133.833 31.5081C132.655 31.4612 131.326 31.4378 129.847 31.4378C128.368 31.4144 127.051 31.4027 125.895 31.4027C125.318 31.4027 124.578 31.4027 123.677 31.4027C122.775 31.4027 121.805 31.4144 120.765 31.4378C119.725 31.4378 118.674 31.4495 117.61 31.4729C116.547 31.4729 115.542 31.4847 114.595 31.5081V30.8053C115.334 30.7585 115.889 30.6648 116.259 30.5242C116.628 30.3837 116.871 30.1026 116.987 29.681C117.125 29.2593 117.195 28.6269 117.195 27.7836V10.3556C117.195 9.48893 117.125 8.85646 116.987 8.45824C116.871 8.0366 116.617 7.75551 116.224 7.61496C115.854 7.45098 115.311 7.35729 114.595 7.33386V6.63112C115.542 6.65455 116.547 6.67797 117.61 6.7014C118.674 6.7014 119.725 6.71311 120.765 6.73653C121.805 6.73653 122.775 6.73653 123.677 6.73653C124.578 6.73653 125.318 6.73653 125.895 6.73653C126.958 6.73653 128.16 6.73653 129.5 6.73653C130.864 6.71311 132.077 6.67797 133.14 6.63112ZM127.732 18.648C127.732 18.648 127.732 18.7651 127.732 18.9993C127.732 19.2336 127.732 19.3507 127.732 19.3507H121.666C121.666 19.3507 121.666 19.2336 121.666 18.9993C121.666 18.7651 121.666 18.648 121.666 18.648H127.732ZM128.738 14.0099C128.645 15.3451 128.599 16.3641 128.599 17.0668C128.622 17.7695 128.634 18.4137 128.634 18.9993C128.634 19.5849 128.645 20.2291 128.668 20.9319C128.692 21.6346 128.749 22.6536 128.842 23.9888H128.044C127.929 23.1689 127.709 22.4076 127.386 21.7049C127.085 21.0021 126.646 20.4399 126.069 20.0183C125.491 19.5732 124.74 19.3507 123.815 19.3507V18.648C124.509 18.648 125.098 18.5074 125.583 18.2263C126.069 17.9218 126.461 17.5353 126.762 17.0668C127.085 16.5749 127.34 16.0595 127.524 15.5208C127.709 14.982 127.848 14.4784 127.94 14.0099H128.738Z" fill="black"/>
<path d="M132.73 1.37034V0H139.965V1.37034H137.124V9.05948H135.559V1.37034H132.73Z" fill="black"/>
<path d="M139.724 9.05948V0H141.928L144.393 7.09278H144.419L146.822 0H149V9.05948H147.51V2.0682H147.485L145.007 9.05948H143.718L141.239 2.0682H141.214V9.05948H139.724Z" fill="black"/>
</svg>
